<mxfile host="Electron" agent="Mozilla/5.0 (Windows NT 10.0; Win64; x64) AppleWebKit/537.36 (KHTML, like Gecko) draw.io/27.0.5 Chrome/134.0.6998.205 Electron/35.3.0 Safari/537.36" version="27.0.5">
  <diagram name="第 1 页" id="qYCC977JJtGFKBxbnr1P">
    <mxGraphModel dx="872" dy="537" grid="1" gridSize="10" guides="1" tooltips="1" connect="1" arrows="1" fold="1" page="1" pageScale="1" pageWidth="827" pageHeight="1169" math="0" shadow="0">
      <root>
        <mxCell id="0" />
        <mxCell id="1" parent="0" />
        <mxCell id="83ebNcft9Qn9WwzoEkK6-1" value="" style="swimlane;childLayout=stackLayout;resizeParent=1;resizeParentMax=0;startSize=0;html=1;" parent="1" vertex="1">
          <mxGeometry x="40.000000000000455" y="40" width="480" height="520" as="geometry">
            <mxRectangle x="150.00000000000045" y="-20" width="60" height="30" as="alternateBounds" />
          </mxGeometry>
        </mxCell>
        <mxCell id="83ebNcft9Qn9WwzoEkK6-2" value="使用者" style="swimlane;startSize=20;html=1;" parent="83ebNcft9Qn9WwzoEkK6-1" vertex="1">
          <mxGeometry width="160" height="520" as="geometry">
            <mxRectangle width="40" height="480" as="alternateBounds" />
          </mxGeometry>
        </mxCell>
        <mxCell id="83ebNcft9Qn9WwzoEkK6-6" value="" style="edgeStyle=orthogonalEdgeStyle;html=1;verticalAlign=bottom;endArrow=open;endSize=8;strokeColor=#ff0000;rounded=0;entryX=0.5;entryY=0;entryDx=0;entryDy=0;exitX=0.5;exitY=0.5;exitDx=0;exitDy=0;exitPerimeter=0;" parent="83ebNcft9Qn9WwzoEkK6-2" source="83ebNcft9Qn9WwzoEkK6-5" edge="1">
          <mxGeometry relative="1" as="geometry">
            <mxPoint x="79.99999999999955" y="120" as="targetPoint" />
            <mxPoint x="79.7499999999996" y="70" as="sourcePoint" />
          </mxGeometry>
        </mxCell>
        <mxCell id="83ebNcft9Qn9WwzoEkK6-5" value="" style="ellipse;html=1;shape=startState;fillColor=#000000;strokeColor=#ff0000;" parent="83ebNcft9Qn9WwzoEkK6-2" vertex="1">
          <mxGeometry x="64.99999999999955" y="45" width="30" height="30" as="geometry" />
        </mxCell>
        <mxCell id="83ebNcft9Qn9WwzoEkK6-3" value="系統" style="swimlane;startSize=20;html=1;" parent="83ebNcft9Qn9WwzoEkK6-1" vertex="1">
          <mxGeometry x="160" width="320" height="520" as="geometry">
            <mxRectangle x="120" width="40" height="480" as="alternateBounds" />
          </mxGeometry>
        </mxCell>
        <mxCell id="83ebNcft9Qn9WwzoEkK6-34" value="查詢列表" style="rounded=1;whiteSpace=wrap;html=1;arcSize=40;fontColor=#000000;fillColor=#ffffc0;strokeColor=#ff0000;" parent="83ebNcft9Qn9WwzoEkK6-3" vertex="1">
          <mxGeometry x="19.999999999999545" y="200" width="120" height="40" as="geometry" />
        </mxCell>
        <mxCell id="83ebNcft9Qn9WwzoEkK6-35" value="" style="edgeStyle=orthogonalEdgeStyle;html=1;verticalAlign=bottom;endArrow=open;endSize=8;strokeColor=#ff0000;rounded=0;entryX=0.5;entryY=0;entryDx=0;entryDy=0;" parent="83ebNcft9Qn9WwzoEkK6-3" source="83ebNcft9Qn9WwzoEkK6-34" target="83ebNcft9Qn9WwzoEkK6-38" edge="1">
          <mxGeometry relative="1" as="geometry">
            <mxPoint x="159.99999999999955" y="460" as="targetPoint" />
          </mxGeometry>
        </mxCell>
        <mxCell id="83ebNcft9Qn9WwzoEkK6-38" value="" style="rhombus;whiteSpace=wrap;html=1;fontColor=#000000;fillColor=#ffffc0;strokeColor=#ff0000;" parent="83ebNcft9Qn9WwzoEkK6-3" vertex="1">
          <mxGeometry x="39.999999999999545" y="280" width="80" height="40" as="geometry" />
        </mxCell>
        <mxCell id="83ebNcft9Qn9WwzoEkK6-39" value="查詢成功" style="edgeStyle=orthogonalEdgeStyle;html=1;align=left;verticalAlign=bottom;endArrow=open;endSize=8;strokeColor=#ff0000;rounded=0;entryX=0.5;entryY=0;entryDx=0;entryDy=0;exitX=1;exitY=0.5;exitDx=0;exitDy=0;" parent="83ebNcft9Qn9WwzoEkK6-3" source="83ebNcft9Qn9WwzoEkK6-38" target="83ebNcft9Qn9WwzoEkK6-43" edge="1">
          <mxGeometry x="-1" relative="1" as="geometry">
            <mxPoint x="299.99999999999955" y="300" as="targetPoint" />
          </mxGeometry>
        </mxCell>
        <mxCell id="83ebNcft9Qn9WwzoEkK6-40" value="查詢失敗" style="edgeStyle=orthogonalEdgeStyle;html=1;align=left;verticalAlign=middle;endArrow=open;endSize=8;strokeColor=#ff0000;rounded=0;exitX=0.5;exitY=1;exitDx=0;exitDy=0;entryX=0.5;entryY=0;entryDx=0;entryDy=0;" parent="83ebNcft9Qn9WwzoEkK6-3" source="83ebNcft9Qn9WwzoEkK6-38" target="83ebNcft9Qn9WwzoEkK6-41" edge="1">
          <mxGeometry x="-0.5" relative="1" as="geometry">
            <mxPoint x="159.99999999999955" y="380" as="targetPoint" />
            <mxPoint as="offset" />
          </mxGeometry>
        </mxCell>
        <mxCell id="83ebNcft9Qn9WwzoEkK6-41" value="顯示查無列表" style="rounded=1;whiteSpace=wrap;html=1;arcSize=40;fontColor=#000000;fillColor=#ffffc0;strokeColor=#ff0000;" parent="83ebNcft9Qn9WwzoEkK6-3" vertex="1">
          <mxGeometry x="19.999999999999545" y="360" width="120" height="40" as="geometry" />
        </mxCell>
        <mxCell id="83ebNcft9Qn9WwzoEkK6-43" value="顯示列表" style="rounded=1;whiteSpace=wrap;html=1;arcSize=40;fontColor=#000000;fillColor=#ffffc0;strokeColor=#ff0000;" parent="83ebNcft9Qn9WwzoEkK6-3" vertex="1">
          <mxGeometry x="179.99999999999955" y="360" width="120" height="40" as="geometry" />
        </mxCell>
        <mxCell id="83ebNcft9Qn9WwzoEkK6-44" value="" style="edgeStyle=orthogonalEdgeStyle;html=1;verticalAlign=bottom;endArrow=open;endSize=8;strokeColor=#ff0000;rounded=0;entryX=1;entryY=0.5;entryDx=0;entryDy=0;" parent="83ebNcft9Qn9WwzoEkK6-3" source="83ebNcft9Qn9WwzoEkK6-43" target="83ebNcft9Qn9WwzoEkK6-51" edge="1">
          <mxGeometry relative="1" as="geometry">
            <mxPoint x="239.99999999999955" y="440" as="targetPoint" />
            <Array as="points">
              <mxPoint x="240" y="460" />
            </Array>
          </mxGeometry>
        </mxCell>
        <mxCell id="83ebNcft9Qn9WwzoEkK6-42" value="" style="edgeStyle=orthogonalEdgeStyle;html=1;verticalAlign=bottom;endArrow=open;endSize=8;strokeColor=#ff0000;rounded=0;exitX=0;exitY=0.5;exitDx=0;exitDy=0;entryX=0.5;entryY=0;entryDx=0;entryDy=0;" parent="83ebNcft9Qn9WwzoEkK6-3" source="83ebNcft9Qn9WwzoEkK6-41" target="83ebNcft9Qn9WwzoEkK6-51" edge="1">
          <mxGeometry relative="1" as="geometry">
            <mxPoint x="59.999999999999545" y="620" as="targetPoint" />
            <Array as="points">
              <mxPoint x="-80" y="380" />
            </Array>
          </mxGeometry>
        </mxCell>
        <mxCell id="83ebNcft9Qn9WwzoEkK6-51" value="" style="ellipse;html=1;shape=endState;fillColor=#000000;strokeColor=#ff0000;" parent="83ebNcft9Qn9WwzoEkK6-3" vertex="1">
          <mxGeometry x="-95.00000000000045" y="445" width="30" height="30" as="geometry" />
        </mxCell>
        <mxCell id="uCjmOjwhu-Ha__F4QX4L-1" value="行程&lt;span style=&quot;background-color: transparent; color: light-dark(rgb(0, 0, 0), rgb(237, 237, 237));&quot;&gt;介面&lt;/span&gt;" style="rounded=1;whiteSpace=wrap;html=1;arcSize=40;fontColor=#000000;fillColor=#ffffc0;strokeColor=#ff0000;" parent="1" vertex="1">
          <mxGeometry x="59.999999999999545" y="160" width="120" height="40" as="geometry" />
        </mxCell>
        <mxCell id="uCjmOjwhu-Ha__F4QX4L-2" value="進入列表" style="rounded=1;whiteSpace=wrap;html=1;arcSize=40;fontColor=#000000;fillColor=#ffffc0;strokeColor=#ff0000;" parent="1" vertex="1">
          <mxGeometry x="60" y="240" width="120" height="40" as="geometry" />
        </mxCell>
        <mxCell id="uCjmOjwhu-Ha__F4QX4L-3" value="" style="edgeStyle=orthogonalEdgeStyle;html=1;verticalAlign=bottom;endArrow=open;endSize=8;strokeColor=#ff0000;rounded=0;entryX=0;entryY=0.5;entryDx=0;entryDy=0;" parent="1" source="uCjmOjwhu-Ha__F4QX4L-2" target="83ebNcft9Qn9WwzoEkK6-34" edge="1">
          <mxGeometry relative="1" as="geometry">
            <mxPoint x="120" y="320" as="targetPoint" />
          </mxGeometry>
        </mxCell>
        <mxCell id="uCjmOjwhu-Ha__F4QX4L-4" value="" style="edgeStyle=orthogonalEdgeStyle;html=1;verticalAlign=bottom;endArrow=open;endSize=8;strokeColor=#ff0000;rounded=0;exitX=0.5;exitY=1;exitDx=0;exitDy=0;" parent="1" source="uCjmOjwhu-Ha__F4QX4L-1" edge="1">
          <mxGeometry relative="1" as="geometry">
            <mxPoint x="120" y="240" as="targetPoint" />
          </mxGeometry>
        </mxCell>
      </root>
    </mxGraphModel>
  </diagram>
</mxfile>
